<?xml version="1.0" encoding="utf-8"?>
<!-- Generator: Adobe Illustrator 25.2.0, SVG Export Plug-In . SVG Version: 6.00 Build 0)  -->
<svg version="1.1" id="Camada_1" xmlns="http://www.w3.org/2000/svg" xmlns:xlink="http://www.w3.org/1999/xlink" x="0px" y="0px"
	 viewBox="0 0 1149.7 538.2" style="enable-background:new 0 0 1149.7 538.2;" xml:space="preserve">
<style type="text/css">
	.st0{fill:#1E1E1E;}
	.st1{fill:#A1A1AA;}
	.st2{fill:#4C1D95;stroke:#6D28D9;stroke-width:2;}
	.st3{fill:#6D28D9;stroke:#8B5CF6;stroke-width:2;}
	.st4{fill:#18181B;stroke:#27272A;stroke-width:2;}
	.st5{fill:#7C3AED;stroke:#8B5CF6;stroke-width:2;}
	.st6{fill:#8B5CF6;stroke:#A78BFA;stroke-width:2;}
	.st7{fill:#5B21B6;stroke:#7C3AED;stroke-width:2;}
	.st8{fill:#18181B;stroke:#FFFFFF;stroke-width:4;}
	.st9{fill:#FFFFFF;}
	.st10{fill:#18181B;stroke:#27272A;}
	.st11{fill:#4C1D95;stroke:#6D28D9;}
	.st12{fill:#5B21B6;stroke:#7C3AED;}
	.st13{fill:#6D28D9;stroke:#8B5CF6;}
	.st14{fill:#7C3AED;stroke:#A78BFA;}
	.st15{fill:#8B5CF6;stroke:#C4B5FD;}
	.st16{fill:none;stroke:#8B5CF6;stroke-width:1.88;stroke-linecap:round;stroke-linejoin:round;}
	.st17{fill:none;stroke:#8B5CF6;}
</style>
<rect x="-18" y="-14.8" class="st0" width="1185.7" height="574.6"/>
<g>
	<path class="st1" d="M86,206.6h-5.2v-14.5H86c1.5,0,2.7,0.3,3.8,0.9c1.1,0.6,1.9,1.4,2.4,2.5c0.6,1.1,0.9,2.4,0.9,3.9
		c0,1.5-0.3,2.8-0.9,3.9c-0.6,1.1-1.4,1.9-2.5,2.5C88.7,206.3,87.4,206.6,86,206.6z M83.9,204h2c0.9,0,1.7-0.2,2.3-0.5
		c0.6-0.3,1.1-0.8,1.4-1.5c0.3-0.7,0.5-1.6,0.5-2.7c0-1.1-0.2-2-0.5-2.6c-0.3-0.7-0.8-1.2-1.4-1.5c-0.6-0.3-1.4-0.5-2.3-0.5h-2V204z
		"/>
	<path class="st1" d="M89.4,244.3c-0.1-0.6-0.3-1-0.7-1.3c-0.4-0.3-1-0.5-1.8-0.5c-0.5,0-0.9,0.1-1.3,0.2c-0.3,0.1-0.6,0.3-0.8,0.6
		c-0.2,0.2-0.3,0.5-0.3,0.8c0,0.3,0,0.5,0.2,0.7c0.1,0.2,0.3,0.4,0.5,0.5c0.2,0.1,0.5,0.3,0.7,0.4c0.3,0.1,0.6,0.2,0.9,0.3l1.3,0.3
		c0.6,0.1,1.2,0.3,1.7,0.6c0.5,0.2,1,0.5,1.4,0.9c0.4,0.3,0.7,0.8,0.9,1.2c0.2,0.5,0.3,1,0.3,1.6c0,0.9-0.2,1.7-0.7,2.3
		c-0.4,0.6-1.1,1.2-1.9,1.5c-0.8,0.4-1.8,0.5-3,0.5c-1.2,0-2.2-0.2-3.1-0.5c-0.9-0.4-1.5-0.9-2-1.6c-0.5-0.7-0.7-1.6-0.8-2.6h3
		c0,0.5,0.2,0.9,0.4,1.2c0.3,0.3,0.6,0.6,1,0.7c0.4,0.2,0.9,0.2,1.4,0.2c0.5,0,1-0.1,1.4-0.2c0.4-0.2,0.7-0.4,0.9-0.6
		c0.2-0.3,0.3-0.6,0.3-0.9c0-0.3-0.1-0.6-0.3-0.8c-0.2-0.2-0.5-0.4-0.8-0.6c-0.4-0.2-0.8-0.3-1.3-0.4l-1.6-0.4
		c-1.2-0.3-2.2-0.8-2.9-1.4c-0.7-0.6-1.1-1.5-1.1-2.6c0-0.9,0.2-1.6,0.7-2.3c0.5-0.7,1.1-1.2,2-1.5c0.8-0.4,1.8-0.6,2.8-0.6
		c1.1,0,2,0.2,2.8,0.6c0.8,0.4,1.4,0.9,1.9,1.5s0.7,1.4,0.7,2.3H89.4z"/>
	<path class="st1" d="M80.8,290.6v-2.5h11.9v2.5h-4.5v12h-3v-12H80.8z"/>
	<path class="st1" d="M85.7,345.6h2.6l1.3,1.7l1.3,1.5l2.4,3.1h-2.9l-1.7-2.1l-0.9-1.2L85.7,345.6z M93.6,343.4c0,1.6-0.3,2.9-0.9,4
		c-0.6,1.1-1.4,2-2.4,2.5c-1,0.6-2.2,0.9-3.5,0.9c-1.3,0-2.5-0.3-3.5-0.9c-1-0.6-1.8-1.4-2.4-2.5c-0.6-1.1-0.9-2.5-0.9-4
		c0-1.6,0.3-2.9,0.9-4c0.6-1.1,1.4-2,2.4-2.5c1-0.6,2.2-0.9,3.5-0.9c1.3,0,2.4,0.3,3.5,0.9c1,0.6,1.8,1.4,2.4,2.5
		C93.3,340.4,93.6,341.8,93.6,343.4z M90.5,343.4c0-1-0.2-1.9-0.5-2.6c-0.3-0.7-0.7-1.2-1.3-1.6c-0.6-0.4-1.2-0.5-1.9-0.5
		c-0.7,0-1.4,0.2-1.9,0.5c-0.6,0.4-1,0.9-1.3,1.6c-0.3,0.7-0.5,1.6-0.5,2.6c0,1,0.2,1.9,0.5,2.6c0.3,0.7,0.7,1.2,1.3,1.6
		c0.6,0.4,1.2,0.5,1.9,0.5c0.7,0,1.4-0.2,1.9-0.5c0.6-0.4,1-0.9,1.3-1.6C90.4,345.3,90.5,344.4,90.5,343.4z"/>
	<path class="st1" d="M85.7,393.6h2.6l1.3,1.7l1.3,1.5l2.4,3.1h-2.9l-1.7-2.1l-0.9-1.2L85.7,393.6z M93.6,391.4c0,1.6-0.3,2.9-0.9,4
		c-0.6,1.1-1.4,2-2.4,2.5c-1,0.6-2.2,0.9-3.5,0.9c-1.3,0-2.5-0.3-3.5-0.9c-1-0.6-1.8-1.4-2.4-2.5c-0.6-1.1-0.9-2.5-0.9-4
		c0-1.6,0.3-2.9,0.9-4c0.6-1.1,1.4-2,2.4-2.5c1-0.6,2.2-0.9,3.5-0.9c1.3,0,2.4,0.3,3.5,0.9c1,0.6,1.8,1.4,2.4,2.5
		C93.3,388.4,93.6,389.8,93.6,391.4z M90.5,391.4c0-1-0.2-1.9-0.5-2.6c-0.3-0.7-0.7-1.2-1.3-1.6c-0.6-0.4-1.2-0.5-1.9-0.5
		c-0.7,0-1.4,0.2-1.9,0.5c-0.6,0.4-1,0.9-1.3,1.6c-0.3,0.7-0.5,1.6-0.5,2.6c0,1,0.2,1.9,0.5,2.6c0.3,0.7,0.7,1.2,1.3,1.6
		c0.6,0.4,1.2,0.5,1.9,0.5c0.7,0,1.4-0.2,1.9-0.5c0.6-0.4,1-0.9,1.3-1.6C90.4,393.3,90.5,392.4,90.5,391.4z"/>
	<path class="st1" d="M89.4,436.3c-0.1-0.6-0.3-1-0.7-1.3c-0.4-0.3-1-0.5-1.8-0.5c-0.5,0-0.9,0.1-1.3,0.2c-0.3,0.1-0.6,0.3-0.8,0.6
		c-0.2,0.2-0.3,0.5-0.3,0.8c0,0.3,0,0.5,0.2,0.7c0.1,0.2,0.3,0.4,0.5,0.5c0.2,0.1,0.5,0.3,0.7,0.4c0.3,0.1,0.6,0.2,0.9,0.3l1.3,0.3
		c0.6,0.1,1.2,0.3,1.7,0.6c0.5,0.2,1,0.5,1.4,0.9c0.4,0.3,0.7,0.8,0.9,1.2c0.2,0.5,0.3,1,0.3,1.6c0,0.9-0.2,1.7-0.7,2.3
		c-0.4,0.6-1.1,1.2-1.9,1.5c-0.8,0.4-1.8,0.5-3,0.5c-1.2,0-2.2-0.2-3.1-0.5c-0.9-0.4-1.5-0.9-2-1.6c-0.5-0.7-0.7-1.6-0.8-2.6h3
		c0,0.5,0.2,0.9,0.4,1.2c0.3,0.3,0.6,0.6,1,0.7c0.4,0.2,0.9,0.2,1.4,0.2c0.5,0,1-0.1,1.4-0.2c0.4-0.2,0.7-0.4,0.9-0.6
		c0.2-0.3,0.3-0.6,0.3-0.9c0-0.3-0.1-0.6-0.3-0.8c-0.2-0.2-0.5-0.4-0.8-0.6c-0.4-0.2-0.8-0.3-1.3-0.4l-1.6-0.4
		c-1.2-0.3-2.2-0.8-2.9-1.4c-0.7-0.6-1.1-1.5-1.1-2.6c0-0.9,0.2-1.6,0.7-2.3c0.5-0.7,1.1-1.2,2-1.5c0.8-0.4,1.8-0.6,2.8-0.6
		c1.1,0,2,0.2,2.8,0.6c0.8,0.4,1.4,0.9,1.9,1.5c0.4,0.7,0.7,1.4,0.7,2.3H89.4z"/>
	<path class="st1" d="M89.4,484.3c-0.1-0.6-0.3-1-0.7-1.3c-0.4-0.3-1-0.5-1.8-0.5c-0.5,0-0.9,0.1-1.3,0.2c-0.3,0.1-0.6,0.3-0.8,0.6
		c-0.2,0.2-0.3,0.5-0.3,0.8c0,0.3,0,0.5,0.2,0.7c0.1,0.2,0.3,0.4,0.5,0.5c0.2,0.1,0.5,0.3,0.7,0.4c0.3,0.1,0.6,0.2,0.9,0.3l1.3,0.3
		c0.6,0.1,1.2,0.3,1.7,0.6c0.5,0.2,1,0.5,1.4,0.9c0.4,0.3,0.7,0.8,0.9,1.2c0.2,0.5,0.3,1,0.3,1.6c0,0.9-0.2,1.7-0.7,2.3
		c-0.4,0.6-1.1,1.2-1.9,1.5c-0.8,0.4-1.8,0.5-3,0.5c-1.2,0-2.2-0.2-3.1-0.5c-0.9-0.4-1.5-0.9-2-1.6c-0.5-0.7-0.7-1.6-0.8-2.6h3
		c0,0.5,0.2,0.9,0.4,1.2c0.3,0.3,0.6,0.6,1,0.7c0.4,0.2,0.9,0.2,1.4,0.2c0.5,0,1-0.1,1.4-0.2c0.4-0.2,0.7-0.4,0.9-0.6
		c0.2-0.3,0.3-0.6,0.3-0.9c0-0.3-0.1-0.6-0.3-0.8c-0.2-0.2-0.5-0.4-0.8-0.6c-0.4-0.2-0.8-0.3-1.3-0.4l-1.6-0.4
		c-1.2-0.3-2.2-0.8-2.9-1.4c-0.7-0.6-1.1-1.5-1.1-2.6c0-0.9,0.2-1.6,0.7-2.3c0.5-0.7,1.1-1.2,2-1.5c0.8-0.4,1.8-0.6,2.8-0.6
		c1.1,0,2,0.2,2.8,0.6c0.8,0.4,1.4,0.9,1.9,1.5c0.4,0.7,0.7,1.4,0.7,2.3H89.4z"/>
	<path class="st2" d="M126.8,180.6h24c3.9,0,7,3.1,7,7v24c0,3.9-3.1,7-7,7h-24c-3.9,0-7-3.1-7-7v-24
		C119.8,183.8,123,180.6,126.8,180.6z"/>
	<path class="st2" d="M174.8,180.6h24c3.9,0,7,3.1,7,7v24c0,3.9-3.1,7-7,7h-24c-3.9,0-7-3.1-7-7v-24
		C167.8,183.8,171,180.6,174.8,180.6z"/>
	<path class="st3" d="M222.8,180.6h24c3.9,0,7,3.1,7,7v24c0,3.9-3.1,7-7,7h-24c-3.9,0-7-3.1-7-7v-24
		C215.8,183.8,219,180.6,222.8,180.6z"/>
	<path class="st4" d="M270.8,180.6h24c3.9,0,7,3.1,7,7v24c0,3.9-3.1,7-7,7h-24c-3.9,0-7-3.1-7-7v-24
		C263.8,183.8,267,180.6,270.8,180.6z"/>
	<path class="st4" d="M318.8,180.6h24c3.9,0,7,3.1,7,7v24c0,3.9-3.1,7-7,7h-24c-3.9,0-7-3.1-7-7v-24
		C311.8,183.8,315,180.6,318.8,180.6z"/>
	<path class="st3" d="M366.8,180.6h24c3.9,0,7,3.1,7,7v24c0,3.9-3.1,7-7,7h-24c-3.9,0-7-3.1-7-7v-24
		C359.8,183.8,363,180.6,366.8,180.6z"/>
	<path class="st4" d="M414.8,180.6h24c3.9,0,7,3.1,7,7v24c0,3.9-3.1,7-7,7h-24c-3.9,0-7-3.1-7-7v-24
		C407.8,183.8,411,180.6,414.8,180.6z"/>
	<path class="st3" d="M462.8,180.6h24c3.9,0,7,3.1,7,7v24c0,3.9-3.1,7-7,7h-24c-3.9,0-7-3.1-7-7v-24
		C455.8,183.8,459,180.6,462.8,180.6z"/>
	<path class="st5" d="M510.8,180.6h24c3.9,0,7,3.1,7,7v24c0,3.9-3.1,7-7,7h-24c-3.9,0-7-3.1-7-7v-24
		C503.8,183.8,507,180.6,510.8,180.6z"/>
	<path class="st5" d="M558.8,180.6h24c3.9,0,7,3.1,7,7v24c0,3.9-3.1,7-7,7h-24c-3.9,0-7-3.1-7-7v-24
		C551.8,183.8,555,180.6,558.8,180.6z"/>
	<path class="st3" d="M606.8,180.6h24c3.9,0,7,3.1,7,7v24c0,3.9-3.1,7-7,7h-24c-3.9,0-7-3.1-7-7v-24
		C599.8,183.8,603,180.6,606.8,180.6z"/>
	<path class="st5" d="M654.8,180.6h24c3.9,0,7,3.1,7,7v24c0,3.9-3.1,7-7,7h-24c-3.9,0-7-3.1-7-7v-24
		C647.8,183.8,651,180.6,654.8,180.6z"/>
	<path class="st6" d="M702.8,180.6h24c3.9,0,7,3.1,7,7v24c0,3.9-3.1,7-7,7h-24c-3.9,0-7-3.1-7-7v-24
		C695.8,183.8,699,180.6,702.8,180.6z"/>
	<path class="st6" d="M750.8,180.6h24c3.9,0,7,3.1,7,7v24c0,3.9-3.1,7-7,7h-24c-3.9,0-7-3.1-7-7v-24
		C743.8,183.8,747,180.6,750.8,180.6z"/>
	<path class="st5" d="M798.8,180.6h24c3.9,0,7,3.1,7,7v24c0,3.9-3.1,7-7,7h-24c-3.9,0-7-3.1-7-7v-24
		C791.8,183.8,795,180.6,798.8,180.6z"/>
	<path class="st6" d="M846.8,180.6h24c3.9,0,7,3.1,7,7v24c0,3.9-3.1,7-7,7h-24c-3.9,0-7-3.1-7-7v-24
		C839.8,183.8,843,180.6,846.8,180.6z"/>
	<path class="st5" d="M894.8,180.6h24c3.9,0,7,3.1,7,7v24c0,3.9-3.1,7-7,7h-24c-3.9,0-7-3.1-7-7v-24
		C887.8,183.8,891,180.6,894.8,180.6z"/>
	<path class="st5" d="M942.8,180.6h24c3.9,0,7,3.1,7,7v24c0,3.9-3.1,7-7,7h-24c-3.9,0-7-3.1-7-7v-24
		C935.8,183.8,939,180.6,942.8,180.6z"/>
	<path class="st6" d="M990.8,180.6h24c3.9,0,7,3.1,7,7v24c0,3.9-3.1,7-7,7h-24c-3.9,0-7-3.1-7-7v-24
		C983.8,183.8,987,180.6,990.8,180.6z"/>
	<path class="st6" d="M1038.8,180.6h24c3.9,0,7,3.1,7,7v24c0,3.9-3.1,7-7,7h-24c-3.9,0-7-3.1-7-7v-24
		C1031.8,183.8,1035,180.6,1038.8,180.6z"/>
	<path class="st2" d="M126.8,228.6h24c3.9,0,7,3.1,7,7v24c0,3.9-3.1,7-7,7h-24c-3.9,0-7-3.1-7-7v-24
		C119.8,231.8,123,228.6,126.8,228.6z"/>
	<path class="st2" d="M174.8,228.6h24c3.9,0,7,3.1,7,7v24c0,3.9-3.1,7-7,7h-24c-3.9,0-7-3.1-7-7v-24
		C167.8,231.8,171,228.6,174.8,228.6z"/>
	<path class="st4" d="M222.8,228.6h24c3.9,0,7,3.1,7,7v24c0,3.9-3.1,7-7,7h-24c-3.9,0-7-3.1-7-7v-24
		C215.8,231.8,219,228.6,222.8,228.6z"/>
	<path class="st7" d="M270.8,228.6h24c3.9,0,7,3.1,7,7v24c0,3.9-3.1,7-7,7h-24c-3.9,0-7-3.1-7-7v-24
		C263.8,231.8,267,228.6,270.8,228.6z"/>
	<path class="st7" d="M318.8,228.6h24c3.9,0,7,3.1,7,7v24c0,3.9-3.1,7-7,7h-24c-3.9,0-7-3.1-7-7v-24
		C311.8,231.8,315,228.6,318.8,228.6z"/>
	<path class="st4" d="M366.8,228.6h24c3.9,0,7,3.1,7,7v24c0,3.9-3.1,7-7,7h-24c-3.9,0-7-3.1-7-7v-24
		C359.8,231.8,363,228.6,366.8,228.6z"/>
	<path class="st7" d="M414.8,228.6h24c3.9,0,7,3.1,7,7v24c0,3.9-3.1,7-7,7h-24c-3.9,0-7-3.1-7-7v-24
		C407.8,231.8,411,228.6,414.8,228.6z"/>
	<path class="st4" d="M462.8,228.6h24c3.9,0,7,3.1,7,7v24c0,3.9-3.1,7-7,7h-24c-3.9,0-7-3.1-7-7v-24
		C455.8,231.8,459,228.6,462.8,228.6z"/>
	<path class="st5" d="M510.8,228.6h24c3.9,0,7,3.1,7,7v24c0,3.9-3.1,7-7,7h-24c-3.9,0-7-3.1-7-7v-24
		C503.8,231.8,507,228.6,510.8,228.6z"/>
	<path class="st5" d="M558.8,228.6h24c3.9,0,7,3.1,7,7v24c0,3.9-3.1,7-7,7h-24c-3.9,0-7-3.1-7-7v-24
		C551.8,231.8,555,228.6,558.8,228.6z"/>
	<path class="st4" d="M606.8,228.6h24c3.9,0,7,3.1,7,7v24c0,3.9-3.1,7-7,7h-24c-3.9,0-7-3.1-7-7v-24
		C599.8,231.8,603,228.6,606.8,228.6z"/>
	<path class="st5" d="M654.8,228.6h24c3.9,0,7,3.1,7,7v24c0,3.9-3.1,7-7,7h-24c-3.9,0-7-3.1-7-7v-24
		C647.8,231.8,651,228.6,654.8,228.6z"/>
	<path class="st6" d="M702.8,228.6h24c3.9,0,7,3.1,7,7v24c0,3.9-3.1,7-7,7h-24c-3.9,0-7-3.1-7-7v-24
		C695.8,231.8,699,228.6,702.8,228.6z"/>
	<path class="st6" d="M750.8,228.6h24c3.9,0,7,3.1,7,7v24c0,3.9-3.1,7-7,7h-24c-3.9,0-7-3.1-7-7v-24
		C743.8,231.8,747,228.6,750.8,228.6z"/>
	<path class="st5" d="M798.8,228.6h24c3.9,0,7,3.1,7,7v24c0,3.9-3.1,7-7,7h-24c-3.9,0-7-3.1-7-7v-24
		C791.8,231.8,795,228.6,798.8,228.6z"/>
	<path class="st6" d="M846.8,228.6h24c3.9,0,7,3.1,7,7v24c0,3.9-3.1,7-7,7h-24c-3.9,0-7-3.1-7-7v-24
		C839.8,231.8,843,228.6,846.8,228.6z"/>
	<path class="st5" d="M894.8,228.6h24c3.9,0,7,3.1,7,7v24c0,3.9-3.1,7-7,7h-24c-3.9,0-7-3.1-7-7v-24
		C887.8,231.8,891,228.6,894.8,228.6z"/>
	<path class="st5" d="M942.8,228.6h24c3.9,0,7,3.1,7,7v24c0,3.9-3.1,7-7,7h-24c-3.9,0-7-3.1-7-7v-24
		C935.8,231.8,939,228.6,942.8,228.6z"/>
	<path class="st6" d="M990.8,228.6h24c3.9,0,7,3.1,7,7v24c0,3.9-3.1,7-7,7h-24c-3.9,0-7-3.1-7-7v-24
		C983.8,231.8,987,228.6,990.8,228.6z"/>
	<path class="st6" d="M1038.8,228.6h24c3.9,0,7,3.1,7,7v24c0,3.9-3.1,7-7,7h-24c-3.9,0-7-3.1-7-7v-24
		C1031.8,231.8,1035,228.6,1038.8,228.6z"/>
	<path class="st4" d="M126.8,276.6h24c3.9,0,7,3.1,7,7v24c0,3.9-3.1,7-7,7h-24c-3.9,0-7-3.1-7-7v-24
		C119.8,279.8,123,276.6,126.8,276.6z"/>
	<path class="st4" d="M174.8,276.6h24c3.9,0,7,3.1,7,7v24c0,3.9-3.1,7-7,7h-24c-3.9,0-7-3.1-7-7v-24
		C167.8,279.8,171,276.6,174.8,276.6z"/>
	<path class="st3" d="M222.8,276.6h24c3.9,0,7,3.1,7,7v24c0,3.9-3.1,7-7,7h-24c-3.9,0-7-3.1-7-7v-24
		C215.8,279.8,219,276.6,222.8,276.6z"/>
	<path class="st7" d="M270.8,276.6h24c3.9,0,7,3.1,7,7v24c0,3.9-3.1,7-7,7h-24c-3.9,0-7-3.1-7-7v-24
		C263.8,279.8,267,276.6,270.8,276.6z"/>
	<path class="st7" d="M318.8,276.6h24c3.9,0,7,3.1,7,7v24c0,3.9-3.1,7-7,7h-24c-3.9,0-7-3.1-7-7v-24
		C311.8,279.8,315,276.6,318.8,276.6z"/>
	<path class="st3" d="M366.8,276.6h24c3.9,0,7,3.1,7,7v24c0,3.9-3.1,7-7,7h-24c-3.9,0-7-3.1-7-7v-24
		C359.8,279.8,363,276.6,366.8,276.6z"/>
	<path class="st7" d="M414.8,276.6h24c3.9,0,7,3.1,7,7v24c0,3.9-3.1,7-7,7h-24c-3.9,0-7-3.1-7-7v-24
		C407.8,279.8,411,276.6,414.8,276.6z"/>
	<path class="st3" d="M462.8,276.6h24c3.9,0,7,3.1,7,7v24c0,3.9-3.1,7-7,7h-24c-3.9,0-7-3.1-7-7v-24
		C455.8,279.8,459,276.6,462.8,276.6z"/>
	<path class="st5" d="M510.8,276.6h24c3.9,0,7,3.1,7,7v24c0,3.9-3.1,7-7,7h-24c-3.9,0-7-3.1-7-7v-24
		C503.8,279.8,507,276.6,510.8,276.6z"/>
	<path class="st5" d="M558.8,276.6h24c3.9,0,7,3.1,7,7v24c0,3.9-3.1,7-7,7h-24c-3.9,0-7-3.1-7-7v-24
		C551.8,279.8,555,276.6,558.8,276.6z"/>
	<path class="st3" d="M606.8,276.6h24c3.9,0,7,3.1,7,7v24c0,3.9-3.1,7-7,7h-24c-3.9,0-7-3.1-7-7v-24
		C599.8,279.8,603,276.6,606.8,276.6z"/>
	<path class="st5" d="M654.8,276.6h24c3.9,0,7,3.1,7,7v24c0,3.9-3.1,7-7,7h-24c-3.9,0-7-3.1-7-7v-24
		C647.8,279.8,651,276.6,654.8,276.6z"/>
	<path class="st6" d="M702.8,276.6h24c3.9,0,7,3.1,7,7v24c0,3.9-3.1,7-7,7h-24c-3.9,0-7-3.1-7-7v-24
		C695.8,279.8,699,276.6,702.8,276.6z"/>
	<path class="st6" d="M750.8,276.6h24c3.9,0,7,3.1,7,7v24c0,3.9-3.1,7-7,7h-24c-3.9,0-7-3.1-7-7v-24
		C743.8,279.8,747,276.6,750.8,276.6z"/>
	<path class="st5" d="M798.8,276.6h24c3.9,0,7,3.1,7,7v24c0,3.9-3.1,7-7,7h-24c-3.9,0-7-3.1-7-7v-24
		C791.8,279.8,795,276.6,798.8,276.6z"/>
	<path class="st6" d="M846.8,276.6h24c3.9,0,7,3.1,7,7v24c0,3.9-3.1,7-7,7h-24c-3.9,0-7-3.1-7-7v-24
		C839.8,279.8,843,276.6,846.8,276.6z"/>
	<path class="st4" d="M894.8,276.6h24c3.9,0,7,3.1,7,7v24c0,3.9-3.1,7-7,7h-24c-3.9,0-7-3.1-7-7v-24
		C887.8,279.8,891,276.6,894.8,276.6z"/>
	<path class="st4" d="M942.8,276.6h24c3.9,0,7,3.1,7,7v24c0,3.9-3.1,7-7,7h-24c-3.9,0-7-3.1-7-7v-24
		C935.8,279.8,939,276.6,942.8,276.6z"/>
	<path class="st6" d="M990.8,276.6h24c3.9,0,7,3.1,7,7v24c0,3.9-3.1,7-7,7h-24c-3.9,0-7-3.1-7-7v-24
		C983.8,279.8,987,276.6,990.8,276.6z"/>
	<path class="st6" d="M1038.8,276.6h24c3.9,0,7,3.1,7,7v24c0,3.9-3.1,7-7,7h-24c-3.9,0-7-3.1-7-7v-24
		C1031.8,279.8,1035,276.6,1038.8,276.6z"/>
	<path class="st2" d="M126.8,324.6h24c3.9,0,7,3.1,7,7v24c0,3.9-3.1,7-7,7h-24c-3.9,0-7-3.1-7-7v-24
		C119.8,327.8,123,324.6,126.8,324.6z"/>
	<path class="st2" d="M174.8,324.6h24c3.9,0,7,3.1,7,7v24c0,3.9-3.1,7-7,7h-24c-3.9,0-7-3.1-7-7v-24
		C167.8,327.8,171,324.6,174.8,324.6z"/>
	<path class="st3" d="M222.8,324.6h24c3.9,0,7,3.1,7,7v24c0,3.9-3.1,7-7,7h-24c-3.9,0-7-3.1-7-7v-24
		C215.8,327.8,219,324.6,222.8,324.6z"/>
	<path class="st4" d="M270.8,324.6h24c3.9,0,7,3.1,7,7v24c0,3.9-3.1,7-7,7h-24c-3.9,0-7-3.1-7-7v-24
		C263.8,327.8,267,324.6,270.8,324.6z"/>
	<path class="st4" d="M318.8,324.6h24c3.9,0,7,3.1,7,7v24c0,3.9-3.1,7-7,7h-24c-3.9,0-7-3.1-7-7v-24
		C311.8,327.8,315,324.6,318.8,324.6z"/>
	<path class="st3" d="M366.8,324.6h24c3.9,0,7,3.1,7,7v24c0,3.9-3.1,7-7,7h-24c-3.9,0-7-3.1-7-7v-24
		C359.8,327.8,363,324.6,366.8,324.6z"/>
	<path class="st4" d="M414.8,324.6h24c3.9,0,7,3.1,7,7v24c0,3.9-3.1,7-7,7h-24c-3.9,0-7-3.1-7-7v-24
		C407.8,327.8,411,324.6,414.8,324.6z"/>
	<path class="st3" d="M462.8,324.6h24c3.9,0,7,3.1,7,7v24c0,3.9-3.1,7-7,7h-24c-3.9,0-7-3.1-7-7v-24
		C455.8,327.8,459,324.6,462.8,324.6z"/>
	<path class="st5" d="M510.8,324.6h24c3.9,0,7,3.1,7,7v24c0,3.9-3.1,7-7,7h-24c-3.9,0-7-3.1-7-7v-24
		C503.8,327.8,507,324.6,510.8,324.6z"/>
	<path class="st5" d="M558.8,324.6h24c3.9,0,7,3.1,7,7v24c0,3.9-3.1,7-7,7h-24c-3.9,0-7-3.1-7-7v-24
		C551.8,327.8,555,324.6,558.8,324.6z"/>
	<path class="st3" d="M606.8,324.6h24c3.9,0,7,3.1,7,7v24c0,3.9-3.1,7-7,7h-24c-3.9,0-7-3.1-7-7v-24
		C599.8,327.8,603,324.6,606.8,324.6z"/>
	<path class="st5" d="M654.8,324.6h24c3.9,0,7,3.1,7,7v24c0,3.9-3.1,7-7,7h-24c-3.9,0-7-3.1-7-7v-24
		C647.8,327.8,651,324.6,654.8,324.6z"/>
	<path class="st4" d="M702.8,324.6h24c3.9,0,7,3.1,7,7v24c0,3.9-3.1,7-7,7h-24c-3.9,0-7-3.1-7-7v-24
		C695.8,327.8,699,324.6,702.8,324.6z"/>
	<path class="st4" d="M750.8,324.6h24c3.9,0,7,3.1,7,7v24c0,3.9-3.1,7-7,7h-24c-3.9,0-7-3.1-7-7v-24
		C743.8,327.8,747,324.6,750.8,324.6z"/>
	<path class="st5" d="M798.8,324.6h24c3.9,0,7,3.1,7,7v24c0,3.9-3.1,7-7,7h-24c-3.9,0-7-3.1-7-7v-24
		C791.8,327.8,795,324.6,798.8,324.6z"/>
	<path class="st4" d="M846.8,324.6h24c3.9,0,7,3.1,7,7v24c0,3.9-3.1,7-7,7h-24c-3.9,0-7-3.1-7-7v-24
		C839.8,327.8,843,324.6,846.8,324.6z"/>
	<path class="st4" d="M894.8,324.6h24c3.9,0,7,3.1,7,7v24c0,3.9-3.1,7-7,7h-24c-3.9,0-7-3.1-7-7v-24
		C887.8,327.8,891,324.6,894.8,324.6z"/>
	<path class="st4" d="M942.8,324.6h24c3.9,0,7,3.1,7,7v24c0,3.9-3.1,7-7,7h-24c-3.9,0-7-3.1-7-7v-24
		C935.8,327.8,939,324.6,942.8,324.6z"/>
	<path class="st6" d="M990.8,324.6h24c3.9,0,7,3.1,7,7v24c0,3.9-3.1,7-7,7h-24c-3.9,0-7-3.1-7-7v-24
		C983.8,327.8,987,324.6,990.8,324.6z"/>
	<path class="st6" d="M1038.8,324.6h24c3.9,0,7,3.1,7,7v24c0,3.9-3.1,7-7,7h-24c-3.9,0-7-3.1-7-7v-24
		C1031.8,327.8,1035,324.6,1038.8,324.6z"/>
	<path class="st4" d="M126.8,372.6h24c3.9,0,7,3.1,7,7v24c0,3.9-3.1,7-7,7h-24c-3.9,0-7-3.1-7-7v-24
		C119.8,375.8,123,372.6,126.8,372.6z"/>
	<path class="st4" d="M174.8,372.6h24c3.9,0,7,3.1,7,7v24c0,3.9-3.1,7-7,7h-24c-3.9,0-7-3.1-7-7v-24
		C167.8,375.8,171,372.6,174.8,372.6z"/>
	<path class="st3" d="M222.8,372.6h24c3.9,0,7,3.1,7,7v24c0,3.9-3.1,7-7,7h-24c-3.9,0-7-3.1-7-7v-24
		C215.8,375.8,219,372.6,222.8,372.6z"/>
	<path class="st7" d="M270.8,372.6h24c3.9,0,7,3.1,7,7v24c0,3.9-3.1,7-7,7h-24c-3.9,0-7-3.1-7-7v-24
		C263.8,375.8,267,372.6,270.8,372.6z"/>
	<path class="st7" d="M318.8,372.6h24c3.9,0,7,3.1,7,7v24c0,3.9-3.1,7-7,7h-24c-3.9,0-7-3.1-7-7v-24
		C311.8,375.8,315,372.6,318.8,372.6z"/>
	<path class="st3" d="M366.8,372.6h24c3.9,0,7,3.1,7,7v24c0,3.9-3.1,7-7,7h-24c-3.9,0-7-3.1-7-7v-24
		C359.8,375.8,363,372.6,366.8,372.6z"/>
	<path class="st7" d="M414.8,372.6h24c3.9,0,7,3.1,7,7v24c0,3.9-3.1,7-7,7h-24c-3.9,0-7-3.1-7-7v-24
		C407.8,375.8,411,372.6,414.8,372.6z"/>
	<path class="st3" d="M462.8,372.6h24c3.9,0,7,3.1,7,7v24c0,3.9-3.1,7-7,7h-24c-3.9,0-7-3.1-7-7v-24
		C455.8,375.8,459,372.6,462.8,372.6z"/>
	<path class="st5" d="M510.8,372.6h24c3.9,0,7,3.1,7,7v24c0,3.9-3.1,7-7,7h-24c-3.9,0-7-3.1-7-7v-24
		C503.8,375.8,507,372.6,510.8,372.6z"/>
	<path class="st5" d="M558.8,372.6h24c3.9,0,7,3.1,7,7v24c0,3.9-3.1,7-7,7h-24c-3.9,0-7-3.1-7-7v-24
		C551.8,375.8,555,372.6,558.8,372.6z"/>
	<path class="st3" d="M606.8,372.6h24c3.9,0,7,3.1,7,7v24c0,3.9-3.1,7-7,7h-24c-3.9,0-7-3.1-7-7v-24
		C599.8,375.8,603,372.6,606.8,372.6z"/>
	<path class="st5" d="M654.8,372.6h24c3.9,0,7,3.1,7,7v24c0,3.9-3.1,7-7,7h-24c-3.9,0-7-3.1-7-7v-24
		C647.8,375.8,651,372.6,654.8,372.6z"/>
	<path class="st6" d="M702.8,372.6h24c3.9,0,7,3.1,7,7v24c0,3.9-3.1,7-7,7h-24c-3.9,0-7-3.1-7-7v-24
		C695.8,375.8,699,372.6,702.8,372.6z"/>
	<path class="st6" d="M750.8,372.6h24c3.9,0,7,3.1,7,7v24c0,3.9-3.1,7-7,7h-24c-3.9,0-7-3.1-7-7v-24
		C743.8,375.8,747,372.6,750.8,372.6z"/>
	<path class="st5" d="M798.8,372.6h24c3.9,0,7,3.1,7,7v24c0,3.9-3.1,7-7,7h-24c-3.9,0-7-3.1-7-7v-24
		C791.8,375.8,795,372.6,798.8,372.6z"/>
	<path class="st6" d="M846.8,372.6h24c3.9,0,7,3.1,7,7v24c0,3.9-3.1,7-7,7h-24c-3.9,0-7-3.1-7-7v-24
		C839.8,375.8,843,372.6,846.8,372.6z"/>
	<path class="st4" d="M894.8,372.6h24c3.9,0,7,3.1,7,7v24c0,3.9-3.1,7-7,7h-24c-3.9,0-7-3.1-7-7v-24
		C887.8,375.8,891,372.6,894.8,372.6z"/>
	<path class="st4" d="M942.8,372.6h24c3.9,0,7,3.1,7,7v24c0,3.9-3.1,7-7,7h-24c-3.9,0-7-3.1-7-7v-24
		C935.8,375.8,939,372.6,942.8,372.6z"/>
	<path class="st6" d="M990.8,372.6h24c3.9,0,7,3.1,7,7v24c0,3.9-3.1,7-7,7h-24c-3.9,0-7-3.1-7-7v-24
		C983.8,375.8,987,372.6,990.8,372.6z"/>
	<path class="st6" d="M1038.8,372.6h24c3.9,0,7,3.1,7,7v24c0,3.9-3.1,7-7,7h-24c-3.9,0-7-3.1-7-7v-24
		C1031.8,375.8,1035,372.6,1038.8,372.6z"/>
	<path class="st2" d="M126.8,420.6h24c3.9,0,7,3.1,7,7v24c0,3.9-3.1,7-7,7h-24c-3.9,0-7-3.1-7-7v-24
		C119.8,423.8,123,420.6,126.8,420.6z"/>
	<path class="st2" d="M174.8,420.6h24c3.9,0,7,3.1,7,7v24c0,3.9-3.1,7-7,7h-24c-3.9,0-7-3.1-7-7v-24
		C167.8,423.8,171,420.6,174.8,420.6z"/>
	<path class="st3" d="M222.8,420.6h24c3.9,0,7,3.1,7,7v24c0,3.9-3.1,7-7,7h-24c-3.9,0-7-3.1-7-7v-24
		C215.8,423.8,219,420.6,222.8,420.6z"/>
	<path class="st7" d="M270.8,420.6h24c3.9,0,7,3.1,7,7v24c0,3.9-3.1,7-7,7h-24c-3.9,0-7-3.1-7-7v-24
		C263.8,423.8,267,420.6,270.8,420.6z"/>
	<path class="st7" d="M318.8,420.6h24c3.9,0,7,3.1,7,7v24c0,3.9-3.1,7-7,7h-24c-3.9,0-7-3.1-7-7v-24
		C311.8,423.8,315,420.6,318.8,420.6z"/>
	<path class="st3" d="M366.8,420.6h24c3.9,0,7,3.1,7,7v24c0,3.9-3.1,7-7,7h-24c-3.9,0-7-3.1-7-7v-24
		C359.8,423.8,363,420.6,366.8,420.6z"/>
	<path class="st7" d="M414.8,420.6h24c3.9,0,7,3.1,7,7v24c0,3.9-3.1,7-7,7h-24c-3.9,0-7-3.1-7-7v-24
		C407.8,423.8,411,420.6,414.8,420.6z"/>
	<path class="st3" d="M462.8,420.6h24c3.9,0,7,3.1,7,7v24c0,3.9-3.1,7-7,7h-24c-3.9,0-7-3.1-7-7v-24
		C455.8,423.8,459,420.6,462.8,420.6z"/>
	<path class="st4" d="M510.8,420.6h24c3.9,0,7,3.1,7,7v24c0,3.9-3.1,7-7,7h-24c-3.9,0-7-3.1-7-7v-24
		C503.8,423.8,507,420.6,510.8,420.6z"/>
	<path class="st4" d="M558.8,420.6h24c3.9,0,7,3.1,7,7v24c0,3.9-3.1,7-7,7h-24c-3.9,0-7-3.1-7-7v-24
		C551.8,423.8,555,420.6,558.8,420.6z"/>
	<path class="st3" d="M606.8,420.6h24c3.9,0,7,3.1,7,7v24c0,3.9-3.1,7-7,7h-24c-3.9,0-7-3.1-7-7v-24
		C599.8,423.8,603,420.6,606.8,420.6z"/>
	<path class="st4" d="M654.8,420.6h24c3.9,0,7,3.1,7,7v24c0,3.9-3.1,7-7,7h-24c-3.9,0-7-3.1-7-7v-24
		C647.8,423.8,651,420.6,654.8,420.6z"/>
	<path class="st4" d="M702.8,420.6h24c3.9,0,7,3.1,7,7v24c0,3.9-3.1,7-7,7h-24c-3.9,0-7-3.1-7-7v-24
		C695.8,423.8,699,420.6,702.8,420.6z"/>
	<path class="st4" d="M750.8,420.6h24c3.9,0,7,3.1,7,7v24c0,3.9-3.1,7-7,7h-24c-3.9,0-7-3.1-7-7v-24
		C743.8,423.8,747,420.6,750.8,420.6z"/>
	<path class="st4" d="M798.8,420.6h24c3.9,0,7,3.1,7,7v24c0,3.9-3.1,7-7,7h-24c-3.9,0-7-3.1-7-7v-24
		C791.8,423.8,795,420.6,798.8,420.6z"/>
	<path class="st4" d="M846.8,420.6h24c3.9,0,7,3.1,7,7v24c0,3.9-3.1,7-7,7h-24c-3.9,0-7-3.1-7-7v-24
		C839.8,423.8,843,420.6,846.8,420.6z"/>
	<path class="st5" d="M894.8,420.6h24c3.9,0,7,3.1,7,7v24c0,3.9-3.1,7-7,7h-24c-3.9,0-7-3.1-7-7v-24
		C887.8,423.8,891,420.6,894.8,420.6z"/>
	<path class="st5" d="M942.8,420.6h24c3.9,0,7,3.1,7,7v24c0,3.9-3.1,7-7,7h-24c-3.9,0-7-3.1-7-7v-24
		C935.8,423.8,939,420.6,942.8,420.6z"/>
	<path class="st6" d="M990.8,420.6h24c3.9,0,7,3.1,7,7v24c0,3.9-3.1,7-7,7h-24c-3.9,0-7-3.1-7-7v-24
		C983.8,423.8,987,420.6,990.8,420.6z"/>
	<path class="st8" d="M1038.8,421.6h24c3.3,0,6,2.7,6,6v24c0,3.3-2.7,6-6,6h-24c-3.3,0-6-2.7-6-6v-24
		C1032.8,424.3,1035.5,421.6,1038.8,421.6z"/>
	<path class="st2" d="M126.8,468.6h24c3.9,0,7,3.1,7,7v24c0,3.9-3.1,7-7,7h-24c-3.9,0-7-3.1-7-7v-24
		C119.8,471.8,123,468.6,126.8,468.6z"/>
	<path class="st2" d="M174.8,468.6h24c3.9,0,7,3.1,7,7v24c0,3.9-3.1,7-7,7h-24c-3.9,0-7-3.1-7-7v-24
		C167.8,471.8,171,468.6,174.8,468.6z"/>
	<path class="st3" d="M222.8,468.6h24c3.9,0,7,3.1,7,7v24c0,3.9-3.1,7-7,7h-24c-3.9,0-7-3.1-7-7v-24
		C215.8,471.8,219,468.6,222.8,468.6z"/>
	<path class="st4" d="M270.8,468.6h24c3.9,0,7,3.1,7,7v24c0,3.9-3.1,7-7,7h-24c-3.9,0-7-3.1-7-7v-24
		C263.8,471.8,267,468.6,270.8,468.6z"/>
	<path class="st4" d="M318.8,468.6h24c3.9,0,7,3.1,7,7v24c0,3.9-3.1,7-7,7h-24c-3.9,0-7-3.1-7-7v-24
		C311.8,471.8,315,468.6,318.8,468.6z"/>
	<path class="st3" d="M366.8,468.6h24c3.9,0,7,3.1,7,7v24c0,3.9-3.1,7-7,7h-24c-3.9,0-7-3.1-7-7v-24
		C359.8,471.8,363,468.6,366.8,468.6z"/>
	<path class="st4" d="M414.8,468.6h24c3.9,0,7,3.1,7,7v24c0,3.9-3.1,7-7,7h-24c-3.9,0-7-3.1-7-7v-24
		C407.8,471.8,411,468.6,414.8,468.6z"/>
	<path class="st3" d="M462.8,468.6h24c3.9,0,7,3.1,7,7v24c0,3.9-3.1,7-7,7h-24c-3.9,0-7-3.1-7-7v-24
		C455.8,471.8,459,468.6,462.8,468.6z"/>
	<path class="st5" d="M510.8,468.6h24c3.9,0,7,3.1,7,7v24c0,3.9-3.1,7-7,7h-24c-3.9,0-7-3.1-7-7v-24
		C503.8,471.8,507,468.6,510.8,468.6z"/>
	<path class="st5" d="M558.8,468.6h24c3.9,0,7,3.1,7,7v24c0,3.9-3.1,7-7,7h-24c-3.9,0-7-3.1-7-7v-24
		C551.8,471.8,555,468.6,558.8,468.6z"/>
	<path class="st3" d="M606.8,468.6h24c3.9,0,7,3.1,7,7v24c0,3.9-3.1,7-7,7h-24c-3.9,0-7-3.1-7-7v-24
		C599.8,471.8,603,468.6,606.8,468.6z"/>
	<path class="st5" d="M654.8,468.6h24c3.9,0,7,3.1,7,7v24c0,3.9-3.1,7-7,7h-24c-3.9,0-7-3.1-7-7v-24
		C647.8,471.8,651,468.6,654.8,468.6z"/>
	<path class="st4" d="M702.8,468.6h24c3.9,0,7,3.1,7,7v24c0,3.9-3.1,7-7,7h-24c-3.9,0-7-3.1-7-7v-24
		C695.8,471.8,699,468.6,702.8,468.6z"/>
	<path class="st4" d="M750.8,468.6h24c3.9,0,7,3.1,7,7v24c0,3.9-3.1,7-7,7h-24c-3.9,0-7-3.1-7-7v-24
		C743.8,471.8,747,468.6,750.8,468.6z"/>
	<path class="st5" d="M798.8,468.6h24c3.9,0,7,3.1,7,7v24c0,3.9-3.1,7-7,7h-24c-3.9,0-7-3.1-7-7v-24
		C791.8,471.8,795,468.6,798.8,468.6z"/>
	<path class="st4" d="M846.8,468.6h24c3.9,0,7,3.1,7,7v24c0,3.9-3.1,7-7,7h-24c-3.9,0-7-3.1-7-7v-24
		C839.8,471.8,843,468.6,846.8,468.6z"/>
	<path class="st4" d="M894.8,468.6h24c3.9,0,7,3.1,7,7v24c0,3.9-3.1,7-7,7h-24c-3.9,0-7-3.1-7-7v-24
		C887.8,471.8,891,468.6,894.8,468.6z"/>
	<path class="st4" d="M942.8,468.6h24c3.9,0,7,3.1,7,7v24c0,3.9-3.1,7-7,7h-24c-3.9,0-7-3.1-7-7v-24
		C935.8,471.8,939,468.6,942.8,468.6z"/>
	<path class="st6" d="M990.8,468.6h24c3.9,0,7,3.1,7,7v24c0,3.9-3.1,7-7,7h-24c-3.9,0-7-3.1-7-7v-24
		C983.8,471.8,987,468.6,990.8,468.6z"/>
	<path class="st9" d="M219.8,94v14.9h-8.3V74h8.1v13.5h0.3c0.6-1.6,1.6-2.9,2.9-3.8c1.4-0.9,3-1.4,5-1.4c1.8,0,3.4,0.4,4.8,1.2
		c1.4,0.8,2.4,1.9,3.2,3.4c0.8,1.5,1.1,3.2,1.1,5.2v16.7h-8.3V93.8c0-1.5-0.4-2.6-1.1-3.4c-0.7-0.8-1.8-1.2-3.1-1.2
		c-0.9,0-1.6,0.2-2.3,0.6c-0.7,0.4-1.2,0.9-1.6,1.6C220,92.1,219.8,93,219.8,94z"/>
	<path class="st9" d="M249.4,109.3c-1.7,0-3.2-0.3-4.4-0.8c-1.3-0.6-2.3-1.4-3.1-2.6c-0.7-1.1-1.1-2.6-1.1-4.3
		c0-1.5,0.3-2.7,0.8-3.7c0.5-1,1.2-1.8,2.1-2.4c0.9-0.6,1.9-1.1,3.1-1.4c1.2-0.3,2.4-0.6,3.8-0.7c1.5-0.1,2.7-0.3,3.6-0.4
		c0.9-0.2,1.6-0.4,2-0.7c0.4-0.3,0.6-0.7,0.6-1.2V91c0-0.9-0.3-1.6-0.9-2c-0.6-0.5-1.4-0.7-2.4-0.7c-1.1,0-2,0.2-2.7,0.7
		c-0.7,0.5-1.1,1.1-1.3,2l-7.7-0.3c0.2-1.6,0.8-3,1.8-4.3c1-1.3,2.3-2.2,3.9-3c1.7-0.7,3.7-1.1,6-1.1c1.7,0,3.2,0.2,4.6,0.6
		c1.4,0.4,2.6,1,3.7,1.7c1,0.7,1.9,1.6,2.4,2.7c0.6,1.1,0.9,2.3,0.9,3.7v17.8h-7.8v-3.6H257c-0.5,0.9-1.1,1.6-1.8,2.2
		c-0.7,0.6-1.6,1.1-2.5,1.4C251.7,109.2,250.6,109.3,249.4,109.3z M251.9,103.9c0.9,0,1.7-0.2,2.4-0.5c0.7-0.4,1.3-0.9,1.7-1.5
		c0.4-0.6,0.6-1.4,0.6-2.2v-2.5c-0.2,0.1-0.5,0.2-0.9,0.3c-0.3,0.1-0.7,0.2-1.1,0.3c-0.4,0.1-0.8,0.2-1.2,0.2
		c-0.4,0.1-0.8,0.1-1.2,0.2c-0.8,0.1-1.5,0.3-2,0.6c-0.5,0.3-1,0.6-1.3,1c-0.3,0.4-0.4,0.9-0.4,1.5c0,0.9,0.3,1.5,0.9,2
		C250.2,103.7,251,103.9,251.9,103.9z"/>
	<path class="st9" d="M270.1,108.9V74h8.3v13.2h0.2c0.3-0.8,0.8-1.6,1.4-2.3c0.6-0.7,1.4-1.3,2.4-1.8c1-0.5,2.2-0.7,3.5-0.7
		c1.8,0,3.5,0.5,5.1,1.4c1.6,1,2.9,2.4,3.9,4.4c1,2,1.5,4.5,1.5,7.6c0,3-0.5,5.4-1.4,7.4c-0.9,2-2.2,3.5-3.8,4.5
		c-1.6,1-3.3,1.5-5.3,1.5c-1.3,0-2.5-0.2-3.4-0.6s-1.8-1-2.4-1.7c-0.6-0.7-1.1-1.5-1.5-2.3h-0.3v4.2H270.1z M278.3,95.8
		c0,1.4,0.2,2.6,0.6,3.7c0.4,1,0.9,1.9,1.7,2.4c0.7,0.6,1.6,0.9,2.6,0.9c1,0,1.9-0.3,2.6-0.9c0.7-0.6,1.3-1.4,1.6-2.4
		c0.4-1,0.6-2.3,0.6-3.7c0-1.4-0.2-2.6-0.6-3.7c-0.4-1-0.9-1.8-1.6-2.4c-0.7-0.6-1.6-0.9-2.6-0.9c-1,0-1.9,0.3-2.6,0.8
		c-0.7,0.6-1.3,1.4-1.7,2.4C278.5,93.1,278.3,94.4,278.3,95.8z"/>
	<path class="st9" d="M300.8,108.9V82.7h8.3v26.2H300.8z M305,79.7c-1.2,0-2.2-0.4-3-1.2c-0.8-0.8-1.3-1.7-1.3-2.8
		c0-1.1,0.4-2,1.3-2.8c0.8-0.8,1.8-1.2,3-1.2c1.2,0,2.2,0.4,3,1.2c0.8,0.8,1.3,1.7,1.3,2.8c0,1.1-0.4,2-1.3,2.8
		C307.2,79.3,306.2,79.7,305,79.7z"/>
	<path class="st9" d="M329.2,82.7v6.1h-16.5v-6.1H329.2z M316.2,76.4h8.3v24.2c0,0.5,0.1,0.9,0.2,1.2c0.2,0.3,0.4,0.5,0.7,0.7
		c0.3,0.1,0.7,0.2,1.1,0.2c0.3,0,0.7,0,1-0.1c0.4-0.1,0.6-0.1,0.8-0.2l1.3,6c-0.4,0.1-1,0.3-1.7,0.4c-0.7,0.2-1.6,0.3-2.6,0.3
		c-2,0.1-3.6-0.1-5-0.7c-1.4-0.6-2.4-1.4-3.2-2.6c-0.7-1.2-1.1-2.6-1.1-4.4V76.4z"/>
	<path class="st9" d="M356,90.7l-7.7,0.2c-0.1-0.5-0.3-1-0.6-1.4c-0.4-0.4-0.8-0.8-1.4-1c-0.6-0.2-1.2-0.4-1.9-0.4
		c-1,0-1.8,0.2-2.5,0.6c-0.7,0.4-1,0.9-1,1.6c0,0.5,0.2,1,0.6,1.3c0.4,0.4,1.2,0.7,2.3,0.9l5,1c2.6,0.5,4.6,1.3,5.8,2.5
		c1.3,1.2,1.9,2.7,1.9,4.6c0,1.8-0.5,3.4-1.6,4.7c-1,1.3-2.5,2.4-4.3,3.1c-1.8,0.7-3.9,1.1-6.2,1.1c-3.7,0-6.7-0.8-8.8-2.3
		c-2.1-1.5-3.4-3.6-3.7-6.2l8.2-0.2c0.2,1,0.7,1.7,1.4,2.2c0.8,0.5,1.7,0.8,2.9,0.8c1.1,0,1.9-0.2,2.6-0.6c0.7-0.4,1-0.9,1-1.6
		c0-0.6-0.3-1.1-0.8-1.4c-0.5-0.4-1.3-0.6-2.4-0.9l-4.6-0.9c-2.6-0.5-4.6-1.4-5.9-2.6c-1.3-1.3-1.9-2.9-1.9-4.9
		c0-1.8,0.5-3.2,1.4-4.5c0.9-1.2,2.3-2.2,4-2.9c1.7-0.7,3.8-1,6.2-1c3.5,0,6.3,0.7,8.4,2.2C354.7,86.1,355.8,88.1,356,90.7z"/>
	<path class="st10" d="M212.8,38.4h8c1.9,0,3.5,1.6,3.5,3.5v8c0,1.9-1.6,3.5-3.5,3.5h-8c-1.9,0-3.5-1.6-3.5-3.5v-8
		C209.3,40,210.9,38.4,212.8,38.4z"/>
	<path class="st11" d="M232.8,38.4h8c1.9,0,3.5,1.6,3.5,3.5v8c0,1.9-1.6,3.5-3.5,3.5h-8c-1.9,0-3.5-1.6-3.5-3.5v-8
		C229.3,40,230.9,38.4,232.8,38.4z"/>
	<path class="st12" d="M252.8,38.4h8c1.9,0,3.5,1.6,3.5,3.5v8c0,1.9-1.6,3.5-3.5,3.5h-8c-1.9,0-3.5-1.6-3.5-3.5v-8
		C249.3,40,250.9,38.4,252.8,38.4z"/>
	<path class="st13" d="M272.8,38.4h8c1.9,0,3.5,1.6,3.5,3.5v8c0,1.9-1.6,3.5-3.5,3.5h-8c-1.9,0-3.5-1.6-3.5-3.5v-8
		C269.3,40,270.9,38.4,272.8,38.4z"/>
	<path class="st14" d="M292.8,38.4h8c1.9,0,3.5,1.6,3.5,3.5v8c0,1.9-1.6,3.5-3.5,3.5h-8c-1.9,0-3.5-1.6-3.5-3.5v-8
		C289.3,40,290.9,38.4,292.8,38.4z"/>
	<path class="st15" d="M312.8,38.4h8c1.9,0,3.5,1.6,3.5,3.5v8c0,1.9-1.6,3.5-3.5,3.5h-8c-1.9,0-3.5-1.6-3.5-3.5v-8
		C309.3,40,310.9,38.4,312.8,38.4z"/>
	<path class="st16" d="M783.4,73.6h13.8"/>
	<path class="st16" d="M790.2,66.8v13.8"/>
	<path class="st9" d="M823,68v11.6h-1.9l-5.5-7.9h-0.1v7.9h-2.1V68h1.9l5.5,7.9h0.1V68H823z M829,79.8c-0.9,0-1.6-0.2-2.2-0.6
		s-1.1-0.9-1.5-1.6c-0.3-0.7-0.5-1.5-0.5-2.4c0-0.9,0.2-1.7,0.5-2.4c0.3-0.7,0.8-1.2,1.5-1.6s1.4-0.6,2.2-0.6c0.9,0,1.6,0.2,2.2,0.6
		s1.1,0.9,1.4,1.6c0.3,0.7,0.5,1.5,0.5,2.4c0,0.9-0.2,1.7-0.5,2.4c-0.3,0.7-0.8,1.2-1.4,1.6S829.8,79.8,829,79.8z M829,78.2
		c0.5,0,0.8-0.1,1.2-0.4c0.3-0.3,0.5-0.6,0.7-1c0.2-0.4,0.2-0.9,0.2-1.4c0-0.5-0.1-1-0.2-1.4c-0.2-0.4-0.4-0.8-0.7-1
		c-0.3-0.3-0.7-0.4-1.2-0.4c-0.5,0-0.9,0.1-1.2,0.4c-0.3,0.3-0.5,0.6-0.7,1c-0.2,0.4-0.2,0.9-0.2,1.4c0,0.5,0.1,1,0.2,1.4
		c0.2,0.4,0.4,0.8,0.7,1C828.1,78,828.5,78.2,829,78.2z M842.4,70.9l-3.1,8.7H837l-3.1-8.7h2.2l2,6.5h0.1l2-6.5H842.4z M847.3,79.8
		c-0.9,0-1.6-0.2-2.2-0.6s-1.1-0.9-1.5-1.6c-0.3-0.7-0.5-1.5-0.5-2.4c0-0.9,0.2-1.7,0.5-2.4c0.3-0.7,0.8-1.2,1.5-1.6
		s1.4-0.6,2.2-0.6s1.6,0.2,2.2,0.6s1.1,0.9,1.4,1.6c0.3,0.7,0.5,1.5,0.5,2.4c0,0.9-0.2,1.7-0.5,2.4c-0.3,0.7-0.8,1.2-1.4,1.6
		S848.2,79.8,847.3,79.8z M847.3,78.2c0.5,0,0.8-0.1,1.2-0.4c0.3-0.3,0.5-0.6,0.7-1c0.2-0.4,0.2-0.9,0.2-1.4c0-0.5-0.1-1-0.2-1.4
		c-0.2-0.4-0.4-0.8-0.7-1c-0.3-0.3-0.7-0.4-1.2-0.4c-0.5,0-0.9,0.1-1.2,0.4c-0.3,0.3-0.5,0.6-0.7,1c-0.2,0.4-0.2,0.9-0.2,1.4
		c0,0.5,0.1,1,0.2,1.4c0.2,0.4,0.4,0.8,0.7,1C846.5,78,846.9,78.2,847.3,78.2z M859.3,74.5v5.1h-2.1V68h2v4.4h0.1
		c0.2-0.5,0.5-0.9,0.9-1.2c0.4-0.3,1-0.4,1.6-0.4c0.6,0,1.1,0.1,1.6,0.4c0.5,0.3,0.8,0.6,1,1.1c0.2,0.5,0.4,1.1,0.4,1.8v5.6h-2.1
		v-5.2c0-0.6-0.2-1-0.5-1.4c-0.3-0.3-0.7-0.5-1.3-0.5c-0.4,0-0.7,0.1-1,0.2c-0.3,0.2-0.5,0.4-0.7,0.7
		C859.4,73.7,859.3,74.1,859.3,74.5z M869.6,79.8c-0.6,0-1.1-0.1-1.5-0.3c-0.4-0.2-0.8-0.5-1-0.9c-0.3-0.4-0.4-0.9-0.4-1.4
		c0-0.5,0.1-0.9,0.3-1.2c0.2-0.3,0.4-0.6,0.7-0.8c0.3-0.2,0.7-0.3,1.1-0.4c0.4-0.1,0.8-0.2,1.2-0.2c0.5-0.1,0.9-0.1,1.2-0.1
		c0.3,0,0.6-0.1,0.7-0.2c0.1-0.1,0.2-0.2,0.2-0.4v0c0-0.4-0.1-0.8-0.4-1c-0.3-0.2-0.6-0.4-1.1-0.4c-0.5,0-0.9,0.1-1.2,0.3
		c-0.3,0.2-0.5,0.5-0.6,0.8l-1.9-0.3c0.2-0.5,0.4-1,0.8-1.3c0.3-0.4,0.8-0.6,1.3-0.8c0.5-0.2,1.1-0.3,1.7-0.3c0.4,0,0.8,0,1.3,0.1
		c0.4,0.1,0.8,0.3,1.1,0.5c0.3,0.2,0.6,0.5,0.8,0.9c0.2,0.4,0.3,0.9,0.3,1.4v5.8h-2v-1.2h-0.1c-0.1,0.2-0.3,0.5-0.5,0.7
		c-0.2,0.2-0.5,0.4-0.8,0.5C870.4,79.8,870,79.8,869.6,79.8z M870.1,78.3c0.4,0,0.8-0.1,1.1-0.2c0.3-0.2,0.5-0.4,0.7-0.7
		c0.2-0.3,0.2-0.6,0.2-0.9v-1c-0.1,0.1-0.2,0.1-0.3,0.1c-0.2,0-0.3,0.1-0.5,0.1c-0.2,0-0.4,0.1-0.6,0.1c-0.2,0-0.3,0-0.5,0.1
		c-0.3,0-0.6,0.1-0.8,0.2c-0.2,0.1-0.4,0.2-0.6,0.4c-0.1,0.2-0.2,0.4-0.2,0.6c0,0.4,0.1,0.7,0.4,0.9
		C869.3,78.2,869.7,78.3,870.1,78.3z M869.9,69.8l1.3-2.6h2l-1.7,2.6H869.9z M876.3,79.6V68h2.1v4.4h0.1c0.1-0.2,0.3-0.4,0.4-0.7
		c0.2-0.2,0.5-0.4,0.8-0.6c0.3-0.2,0.8-0.3,1.3-0.3c0.7,0,1.3,0.2,1.8,0.5c0.5,0.3,1,0.8,1.3,1.5c0.3,0.7,0.5,1.5,0.5,2.5
		c0,1-0.2,1.8-0.5,2.4c-0.3,0.7-0.7,1.2-1.3,1.5c-0.5,0.4-1.2,0.5-1.8,0.5c-0.5,0-0.9-0.1-1.2-0.2c-0.3-0.2-0.6-0.4-0.8-0.6
		c-0.2-0.2-0.3-0.5-0.5-0.7h-0.1v1.4H876.3z M878.3,75.3c0,0.6,0.1,1.1,0.2,1.5c0.2,0.4,0.4,0.8,0.7,1c0.3,0.2,0.7,0.4,1.1,0.4
		c0.5,0,0.8-0.1,1.1-0.4c0.3-0.2,0.5-0.6,0.7-1c0.2-0.4,0.2-0.9,0.2-1.5c0-0.5-0.1-1-0.2-1.4c-0.2-0.4-0.4-0.8-0.7-1
		c-0.3-0.2-0.7-0.4-1.1-0.4c-0.4,0-0.8,0.1-1.1,0.3c-0.3,0.2-0.5,0.6-0.7,1C878.4,74.2,878.3,74.7,878.3,75.3z M886.3,79.6v-8.7h2.1
		v8.7H886.3z M887.3,69.7c-0.3,0-0.6-0.1-0.8-0.3c-0.2-0.2-0.4-0.5-0.4-0.8c0-0.3,0.1-0.6,0.4-0.8c0.2-0.2,0.5-0.3,0.8-0.3
		c0.3,0,0.6,0.1,0.8,0.3c0.2,0.2,0.4,0.5,0.4,0.8c0,0.3-0.1,0.6-0.4,0.8C887.9,69.6,887.7,69.7,887.3,69.7z M894.8,70.9v1.6h-5v-1.6
		H894.8z M891.1,68.8h2.1V77c0,0.3,0,0.5,0.1,0.6c0.1,0.1,0.2,0.2,0.3,0.3c0.1,0.1,0.3,0.1,0.5,0.1c0.1,0,0.2,0,0.4,0
		c0.1,0,0.2,0,0.2-0.1l0.3,1.6c-0.1,0-0.3,0.1-0.5,0.1c-0.2,0-0.4,0.1-0.7,0.1c-0.5,0-1-0.1-1.4-0.2c-0.4-0.2-0.7-0.4-1-0.8
		c-0.2-0.4-0.4-0.8-0.4-1.4V68.8z M900.3,79.8c-0.9,0-1.6-0.2-2.2-0.6s-1.1-0.9-1.5-1.6c-0.3-0.7-0.5-1.5-0.5-2.4
		c0-0.9,0.2-1.7,0.5-2.4c0.3-0.7,0.8-1.2,1.5-1.6s1.4-0.6,2.2-0.6c0.9,0,1.6,0.2,2.2,0.6s1.1,0.9,1.4,1.6c0.3,0.7,0.5,1.5,0.5,2.4
		c0,0.9-0.2,1.7-0.5,2.4c-0.3,0.7-0.8,1.2-1.4,1.6S901.1,79.8,900.3,79.8z M900.3,78.2c0.5,0,0.8-0.1,1.2-0.4c0.3-0.3,0.5-0.6,0.7-1
		c0.2-0.4,0.2-0.9,0.2-1.4c0-0.5-0.1-1-0.2-1.4c-0.2-0.4-0.4-0.8-0.7-1c-0.3-0.3-0.7-0.4-1.2-0.4c-0.5,0-0.9,0.1-1.2,0.4
		c-0.3,0.3-0.5,0.6-0.7,1c-0.2,0.4-0.2,0.9-0.2,1.4c0,0.5,0.1,1,0.2,1.4c0.2,0.4,0.4,0.8,0.7,1C899.4,78,899.8,78.2,900.3,78.2z"/>
	<path class="st17" d="M764.2,48.1h157c4.1,0,7.5,3.4,7.5,7.5v36c0,4.1-3.4,7.5-7.5,7.5h-157c-4.1,0-7.5-3.4-7.5-7.5v-36
		C756.7,51.5,760.1,48.1,764.2,48.1z"/>
</g>
</svg>
